<svg xmlns="http://www.w3.org/2000/svg" viewBox="0 0 512 512">
  <rect width="512" height="512" rx="92" fill="#1e4c51"/>
  <path d="M95 118l130-43 192 64-130 43-192-64zm0 0v268l130 51V75L95 118zm322 21v268l-130 30V182l130-43z" fill="#e9dcc0" stroke="#293b38" stroke-width="14" stroke-linejoin="round"/>
  <path d="M144 327c66-91 121-94 224-137" fill="none" stroke="#b84a3d" stroke-width="18" stroke-linecap="round" stroke-dasharray="22 23"/>
  <path d="M369 157c-31 0-56 25-56 56 0 44 56 101 56 101s56-57 56-101c0-31-25-56-56-56zm0 77a22 22 0 110-44 22 22 0 010 44z" fill="#b84a3d"/>
</svg>
